<svg data-v-0dd9719b="" version="1.0" xmlns="http://www.w3.org/2000/svg" xmlns:xlink="http://www.w3.org/1999/xlink" width="100%" height="100%" viewBox="0 0 340.000000 250.000000" preserveAspectRatio="xMidYMid meet" color-interpolation-filters="sRGB" style="margin: auto;"> <rect data-v-0dd9719b="" x="0" y="0" width="100%" height="100%" fill="#fff" fill-opacity="1" class="background"></rect> <rect data-v-0dd9719b="" x="0" y="0" width="100%" height="100%" fill="url(#watermark)" fill-opacity="1" class="watermarklayer"></rect> <g data-v-0dd9719b="" fill="#333" class="icon-text-wrapper icon-svg-group iconsvg" transform="translate(47.62000274658203,91.03414535522461)"><g class="iconsvg-imagesvg" transform="translate(0,0)"><g><rect fill="#333" fill-opacity="0" stroke-width="2" x="0" y="0" width="60" height="67.93170599157646" class="image-rect"></rect> <svg x="0" y="0" width="60" height="67.93170599157646" filtersec="colorsb7360876165" class="image-svg-svg primary" style="overflow: visible;"><svg xmlns="http://www.w3.org/2000/svg" viewBox="-0.021244613453745842 0.0102689228951931 177.68438720703125 201.173095703125"><path d="M135.34 100.54c0 7.56-.09 15.13 0 22.7a4.72 4.72 0 0 1-2.83 4.86q-20.79 11.6-41.4 23.52a4.13 4.13 0 0 1-4.76-.07q-20.75-11.93-41.61-23.64a4.07 4.07 0 0 1-2.51-4c.1-15.72.08-31.44 0-47.16a3 3 0 0 1 1.69-3q21.6-12.19 43.13-24.49a3.13 3.13 0 0 1 3.48.06c12.9 7.4 25.67 15.06 38.82 22 4.82 2.53 6.41 5.36 6 10.57-.5 6.2-.12 12.47-.12 18.71z" fill="#fddd17"></path><path d="M142.29 100.67V33.06c0-3 0-3.05 2.64-1.57q15.49 8.79 31 17.56a3 3 0 0 1 1.72 3q-.06 48.52 0 97.05a3.32 3.32 0 0 1-2 3.27q-15.51 8.75-31 17.57c-2.33 1.33-2.35 1.32-2.35-1.36zM35.37 100.84v67.61c0 2.77 0 2.78-2.5 1.37-10.25-5.82-20.48-11.69-30.76-17.44A3.69 3.69 0 0 1 0 148.64q.08-48 0-96.06c0-1.61.24-2.74 1.84-3.64 10.46-5.82 20.84-11.76 31.25-17.65 2.25-1.29 2.28-1.29 2.28 1.44zM42.32 46V28.05a2.94 2.94 0 0 1 1.61-3Q65.49 12.88 87 .58a3.16 3.16 0 0 1 3.62 0q21.51 12.3 43.1 24.48a3 3 0 0 1 1.64 3v35.91c0 2.73-.06 2.75-2.57 1.33-13.86-7.87-27.73-15.72-41.55-23.67a4.17 4.17 0 0 0-4.77 0c-13.81 7.95-27.69 15.8-41.55 23.67-2.58 1.47-2.6 1.45-2.6-1.51V46.08zM42.31 155c0-6 .06-12 0-18 0-2.06.3-2.48 2.26-1.35 14 8 28 15.93 42 23.95a3.94 3.94 0 0 0 4.53.06c14-8 28-16 42-23.92 2.29-1.3 2.29-1.31 2.3 1.4v35.67a3.49 3.49 0 0 1-2 3.54q-21.39 12-42.68 24.23a3.13 3.13 0 0 1-3.61.06Q65.66 188.4 44.18 176.3a3.28 3.28 0 0 1-1.91-3.3c.1-6 .04-12 .04-18z" fill="#bf202f"></path></svg></svg> <!----></g></g> <g transform="translate(67,20.24085521697998)"><g data-gra="path-name" fill-rule="" class="tp-name iconsvg-namesvg"><g transform="scale(1)"><g><path d="M30.8-24.39L30.8-24.39 30.8-23.7Q29.7-23.67 29.14-23.44 28.59-23.22 28.4-22.62 28.21-22.01 28.21-20.74L28.21-20.74 28.21-3.65Q28.21-2.41 28.4-1.79 28.59-1.17 29.14-0.96 29.7-0.76 30.8-0.69L30.8-0.69 30.8 0Q29.83-0.07 28.37-0.09 26.91-0.1 25.39-0.1L25.39-0.1Q23.74-0.1 22.29-0.09 20.84-0.07 19.95 0L19.95 0 19.95-0.69Q21.12-0.76 21.72-0.96 22.32-1.17 22.53-1.79 22.74-2.41 22.74-3.65L22.74-3.65 22.74-22.29 22.98-22.29 14.43 0.03 13.88 0.03 4.58-22.15 4.58-5.65Q4.58-3.76 4.79-2.74 5-1.72 5.7-1.29 6.41-0.86 7.92-0.69L7.92-0.69 7.92 0Q7.27-0.07 6.2-0.09 5.13-0.1 4.2-0.1L4.2-0.1Q3.41-0.1 2.58-0.09 1.76-0.07 1.21 0L1.21 0 1.21-0.69Q2.31-0.86 2.86-1.27 3.41-1.69 3.6-2.64 3.79-3.58 3.79-5.24L3.79-5.24 3.79-20.74Q3.79-22.01 3.6-22.62 3.41-23.22 2.84-23.44 2.27-23.67 1.21-23.7L1.21-23.7 1.21-24.39Q1.76-24.36 2.58-24.32 3.41-24.29 4.2-24.29L4.2-24.29Q5.68-24.29 7.11-24.32 8.54-24.36 9.65-24.39L9.65-24.39 16.88-6.92 16.02-6.13 22.94-24.29Q23.53-24.29 24.15-24.29 24.77-24.29 25.39-24.29L25.39-24.29Q26.91-24.29 28.37-24.32 29.83-24.36 30.8-24.39ZM37.1 0.24L37.1 0.24Q34.79 0.24 33.76-0.96 32.73-2.17 32.73-3.89L32.73-3.89Q32.73-5.37 33.4-6.3 34.07-7.23 35.14-7.84 36.21-8.44 37.4-8.84 38.58-9.23 39.67-9.63 40.75-10.02 41.43-10.54 42.1-11.06 42.1-11.85L42.1-11.85 42.1-14.54Q42.1-15.43 41.8-16.14 41.51-16.85 40.91-17.22 40.31-17.6 39.34-17.6L39.34-17.6Q38.65-17.6 37.96-17.41 37.27-17.22 36.83-16.78L36.83-16.78Q37.79-16.43 38.33-15.73 38.86-15.02 38.86-14.12L38.86-14.12Q38.86-12.95 38.05-12.26 37.24-11.58 36.14-11.58L36.14-11.58Q34.9-11.58 34.26-12.35 33.62-13.13 33.62-14.23L33.62-14.23Q33.62-15.23 34.12-15.88 34.62-16.54 35.52-17.12L35.52-17.12Q36.48-17.67 37.84-17.98 39.2-18.29 40.79-18.29L40.79-18.29Q42.37-18.29 43.65-17.97 44.92-17.64 45.78-16.78L45.78-16.78Q46.58-15.98 46.82-14.83 47.06-13.68 47.06-11.92L47.06-11.92 47.06-2.55Q47.06-1.72 47.23-1.38 47.4-1.03 47.82-1.03L47.82-1.03Q48.16-1.03 48.47-1.21 48.78-1.38 49.06-1.62L49.06-1.62 49.4-1.03Q48.68-0.41 47.73-0.09 46.78 0.24 45.61 0.24L45.61 0.24Q43.54 0.24 42.87-0.6 42.2-1.45 42.17-2.55L42.17-2.55Q41.31-1.14 40.05-0.45 38.79 0.24 37.1 0.24ZM39.76-1.96L39.76-1.96Q40.41-1.96 40.98-2.27 41.55-2.58 42.1-3.38L42.1-3.38 42.1-10.44Q41.68-9.75 40.94-9.28 40.2-8.82 39.43-8.29 38.65-7.75 38.14-6.92 37.62-6.1 37.62-4.72L37.62-4.72Q37.62-3.24 38.24-2.6 38.86-1.96 39.76-1.96ZM62.25-18.29L62.25-18.29Q63.35-18.29 64.04-17.83 64.73-17.36 65.06-16.64 65.39-15.92 65.39-15.12L65.39-15.12Q65.39-13.85 64.64-13.04 63.9-12.23 62.7-12.23L62.7-12.23Q61.49-12.23 60.82-12.83 60.15-13.44 60.15-14.43L60.15-14.43Q60.15-15.4 60.58-16.04 61.01-16.67 61.67-17.12L61.67-17.12Q61.18-17.26 60.7-17.09L60.7-17.09Q59.8-16.95 59.1-16.24 58.39-15.54 57.98-14.57 57.57-13.61 57.57-12.68L57.57-12.68 57.57-3.55Q57.57-1.89 58.38-1.31 59.18-0.72 60.8-0.72L60.8-0.72 60.8 0Q60.01-0.03 58.5-0.09 56.98-0.14 55.33-0.14L55.33-0.14Q53.95-0.14 52.54-0.09 51.12-0.03 50.4 0L50.4 0 50.4-0.72Q51.61-0.72 52.11-1.24 52.6-1.76 52.6-3.2L52.6-3.2 52.6-14.06Q52.6-15.61 52.14-16.35 51.67-17.09 50.4-17.09L50.4-17.09 50.4-17.81Q51.5-17.71 52.54-17.71L52.54-17.71Q53.98-17.71 55.24-17.83 56.5-17.95 57.57-18.19L57.57-18.19 57.57-14.99Q57.98-15.92 58.67-16.67 59.36-17.43 60.25-17.86 61.15-18.29 62.25-18.29ZM72.59-26.97L72.59-26.97 72.59-3.2Q72.59-1.76 73.05-1.24 73.52-0.72 74.65-0.72L74.65-0.72 74.65 0Q74-0.03 72.74-0.09 71.48-0.14 70.17-0.14L70.17-0.14Q68.83-0.14 67.47-0.09 66.11-0.03 65.42 0L65.42 0 65.42-0.72Q66.63-0.72 67.13-1.24 67.62-1.76 67.62-3.2L67.62-3.2 67.62-22.84Q67.62-24.39 67.16-25.13 66.69-25.87 65.42-25.87L65.42-25.87 65.42-26.6Q66.52-26.49 67.56-26.49L67.56-26.49Q68.97-26.49 70.24-26.61 71.52-26.73 72.59-26.97ZM83.82-17.81L83.82-17.81 83.82-17.12Q82.75-16.91 81.68-16.23 80.61-15.54 79.51-14.47L79.51-14.47 76.86-11.71 77.2-12.37 83.09-2.51Q83.47-1.89 83.89-1.41 84.3-0.93 84.88-0.72L84.88-0.72 84.88 0Q84.37-0.03 83.33-0.09 82.3-0.14 81.27-0.14L81.27-0.14Q79.99-0.14 78.72-0.09 77.44-0.03 76.82 0L76.82 0 76.82-0.72Q77.51-0.72 77.75-1.05 77.99-1.38 77.68-1.89L77.68-1.89 74.27-8.06Q73.86-8.72 73.46-8.91 73.07-9.09 72.41-9.13L72.41-9.13 72.41-9.78Q73.14-9.85 73.67-10.02 74.2-10.2 74.65-10.68L74.65-10.68 77.27-13.23Q78.44-14.33 78.44-15.19 78.44-16.05 77.7-16.57 76.96-17.09 75.76-17.12L75.76-17.12 75.76-17.81Q76.72-17.78 77.86-17.74 78.99-17.71 79.79-17.71L79.79-17.71Q80.47-17.71 81.25-17.72 82.02-17.74 82.71-17.76 83.4-17.78 83.82-17.81ZM90.22-26.7L90.22-26.7Q91.67-26.7 92.51-25.99 93.36-25.29 93.36-24.05L93.36-24.05Q93.36-22.81 92.51-22.1 91.67-21.39 90.22-21.39L90.22-21.39Q88.78-21.39 87.93-22.1 87.09-22.81 87.09-24.05L87.09-24.05Q87.09-25.29 87.93-25.99 88.78-26.7 90.22-26.7ZM92.91-18.19L92.91-18.19 92.91-3.2Q92.91-1.76 93.41-1.24 93.91-0.72 95.12-0.72L95.12-0.72 95.12 0Q94.5-0.03 93.19-0.09 91.88-0.14 90.53-0.14L90.53-0.14Q89.19-0.14 87.81-0.09 86.43-0.03 85.75 0L85.75 0 85.75-0.72Q86.95-0.72 87.45-1.24 87.95-1.76 87.95-3.2L87.95-3.2 87.95-14.06Q87.95-15.61 87.49-16.35 87.02-17.09 85.75-17.09L85.75-17.09 85.75-17.81Q86.85-17.71 87.88-17.71L87.88-17.71Q89.33-17.71 90.59-17.83 91.84-17.95 92.91-18.19ZM103.59-23.46L103.59-23.46 103.59-17.81 107.66-17.81 107.66-17.12 103.59-17.12 103.59-3.2Q103.59-2.17 103.97-1.74 104.35-1.31 105.11-1.31L105.11-1.31Q105.73-1.31 106.35-1.77 106.97-2.24 107.45-3.38L107.45-3.38 108.03-3.07Q107.48-1.52 106.36-0.52 105.24 0.48 103.31 0.48L103.31 0.48Q102.18 0.48 101.32 0.19 100.46-0.1 99.87-0.69L99.87-0.69Q99.11-1.45 98.87-2.57 98.63-3.69 98.63-5.48L98.63-5.48 98.63-17.12 95.74-17.12 95.74-17.81 98.63-17.81 98.63-22.36Q100.08-22.36 101.3-22.62 102.52-22.87 103.59-23.46ZM116.85-23.7L116.85-24.39Q117.71-24.36 119.18-24.32 120.64-24.29 122.09-24.29L122.09-24.29Q123.74-24.29 125.29-24.32 126.84-24.36 127.5-24.36L127.5-24.36Q131.77-24.36 133.89-22.84 136.01-21.32 136.01-18.95L136.01-18.95Q136.01-17.74 135.28-16.5 134.56-15.26 133.04-14.3 131.53-13.33 129.12-12.88L129.12-12.88 129.12-12.82Q132.36-12.57 134.25-11.64 136.15-10.71 136.97-9.4 137.8-8.1 137.8-6.68L137.8-6.68Q137.8-3.44 135.27-1.72 132.73 0 128.29 0L128.29 0Q127.46 0 125.9-0.05 124.33-0.1 122.16-0.1L122.16-0.1Q120.64-0.1 119.18-0.09 117.71-0.07 116.85 0L116.85 0 116.85-0.69Q117.96-0.76 118.51-0.96 119.06-1.17 119.25-1.79 119.44-2.41 119.44-3.65L119.44-3.65 119.44-20.74Q119.44-22.01 119.25-22.62 119.06-23.22 118.49-23.44 117.92-23.67 116.85-23.7L116.85-23.7ZM127.05-23.7L127.05-23.7Q125.71-23.7 125.31-23.12 124.91-22.53 124.91-20.74L124.91-20.74 124.91-3.65Q124.91-1.86 125.36-1.33 125.81-0.79 127.29-0.79L127.29-0.79Q129.77-0.79 130.93-2.36 132.08-3.93 132.08-6.82L132.08-6.82Q132.08-9.47 130.75-10.92 129.43-12.37 126.36-12.37L126.36-12.37 123.43-12.37Q123.43-12.37 123.43-12.66 123.43-12.95 123.43-12.95L123.43-12.95 126.4-12.95Q128.02-12.95 128.88-13.73 129.74-14.5 130.08-15.8 130.43-17.09 130.43-18.57L130.43-18.57Q130.43-21.12 129.63-22.41 128.84-23.7 127.05-23.7ZM148.31-18.29L148.31-18.29Q150.96-18.29 152.51-17.16 154.06-16.02 154.06-13.92L154.06-13.92Q154.06-12.26 153.03-10.92 151.99-9.58 150.48-8.44 148.96-7.3 147.41-6.25 145.86-5.2 144.83-4.1L144.83-4.1 152.27-4.1Q153.68-4.1 154.06-4.44 154.44-4.79 154.58-5.65L154.58-5.65 155.3-5.65Q155.3-3.34 155.33-2.07 155.37-0.79 155.44 0.17L155.44 0.17Q154.99 0.07 153.42 0.03 151.85 0 150.3 0L150.3 0 140.28 0 140.28-0.65Q141.24-1.69 142.66-2.93 144.07-4.17 145.43-5.68 146.79-7.2 147.72-8.97 148.65-10.75 148.65-12.78L148.65-12.78Q148.65-14.64 147.82-15.47 147-16.29 145.45-16.29L145.45-16.29Q143.97-16.29 142.85-15.62 141.73-14.95 140.83-13.64L140.83-13.64 140.24-13.99Q141.28-15.74 143.16-17.02 145.03-18.29 148.31-18.29ZM158.02-23.7L158.02-24.39Q158.88-24.36 160.35-24.32 161.81-24.29 163.26-24.29L163.26-24.29Q164.91-24.29 166.46-24.32 168.01-24.36 168.67-24.36L168.67-24.36Q172.94-24.36 175.06-22.84 177.18-21.32 177.18-18.95L177.18-18.95Q177.18-17.74 176.45-16.5 175.73-15.26 174.21-14.3 172.7-13.33 170.29-12.88L170.29-12.88 170.29-12.82Q173.52-12.57 175.42-11.64 177.31-10.71 178.14-9.4 178.97-8.1 178.97-6.68L178.97-6.68Q178.97-3.44 176.43-1.72 173.9 0 169.46 0L169.46 0Q168.63 0 167.06-0.05 165.5-0.1 163.33-0.1L163.33-0.1Q161.81-0.1 160.35-0.09 158.88-0.07 158.02 0L158.02 0 158.02-0.69Q159.12-0.76 159.67-0.96 160.23-1.17 160.42-1.79 160.6-2.41 160.6-3.65L160.6-3.65 160.6-20.74Q160.6-22.01 160.42-22.62 160.23-23.22 159.66-23.44 159.09-23.67 158.02-23.7L158.02-23.7ZM168.22-23.7L168.22-23.7Q166.87-23.7 166.48-23.12 166.08-22.53 166.08-20.74L166.08-20.74 166.08-3.65Q166.08-1.86 166.53-1.33 166.98-0.79 168.46-0.79L168.46-0.79Q170.94-0.79 172.09-2.36 173.25-3.93 173.25-6.82L173.25-6.82Q173.25-9.47 171.92-10.92 170.6-12.37 167.53-12.37L167.53-12.37 164.6-12.37Q164.6-12.37 164.6-12.66 164.6-12.95 164.6-12.95L164.6-12.95 167.56-12.95Q169.18-12.95 170.04-13.73 170.91-14.5 171.25-15.8 171.59-17.09 171.59-18.57L171.59-18.57Q171.59-21.12 170.8-22.41 170.01-23.7 168.22-23.7Z" transform="translate(-1.2100000381469727, 26.969999313354492)"></path></g> <!----> <!----> <!----> <!----> <!----> <!----> <!----></g></g> <!----></g></g><defs v-gra="od"></defs></svg>